<svg width="270" height="264" viewBox="0 0 270 264" fill="none" xmlns="http://www.w3.org/2000/svg">
<path d="M0.00718305 88.125C0.491172 65.3501 11.632 43.0219 27.784 26.9706C43.8054 11.0491 66.0985 -0.419986 88.673 0.0118064C110.16 0.422786 124.468 22.6419 144.933 29.2114C163.433 35.1504 186.017 24.9607 201.782 36.3228C217.666 47.77 217.196 71.3236 226.94 88.3127C240.25 111.519 273.81 128.211 269.645 154.642C265.609 180.25 232.156 189.417 209.134 201.301C191.115 210.604 169.17 206.559 151.13 215.823C126.97 228.229 114.243 262.86 87.1103 263.963C61.3976 265.008 36.5787 243.738 24.5564 220.968C12.8111 198.722 29.81 171.517 25.238 146.776C21.3031 125.483 -0.452886 109.774 0.00718305 88.125Z" fill="url(#paint0_linear_15_1125)"/>
<defs>
<linearGradient id="paint0_linear_15_1125" x1="270" y1="264" x2="270" y2="-1.18021e-05" gradientUnits="userSpaceOnUse">
<stop stop-color="#FFDFD3"/>
<stop offset="1" stop-color="#FFE5F6"/>
</linearGradient>
</defs>
</svg>
