<svg width="180" height="36" viewBox="0 0 180 36" fill="none" xmlns="http://www.w3.org/2000/svg">
<g clip-path="url(#clip0_678_8594)">
<path d="M98.7857 13.0709C98.7857 14.7099 98.4796 16.2814 97.9213 17.7314C97.3451 19.2289 96.4933 20.5989 95.4271 21.781C94.9354 22.3267 94.0911 22.3733 93.5415 21.885C92.9918 21.3968 92.9449 20.5586 93.4367 20.0131C94.2787 19.0797 94.955 17.9877 95.4177 16.7851C95.8609 15.6341 96.1038 14.382 96.1038 13.0709C96.1038 10.197 94.93 7.59473 93.0327 5.7112C91.1351 3.82768 88.5136 2.66224 85.6187 2.66224C82.7238 2.66224 80.1024 3.82754 78.205 5.71105C76.3287 7.57371 75.1587 10.1345 75.1292 12.9616C75.1321 12.9975 75.1337 13.0341 75.1337 13.0709C75.1337 15.9447 76.3075 18.547 78.2049 20.4306C80.1024 22.3141 82.724 23.4795 85.6187 23.4795C86.5688 23.4795 87.4861 23.3555 88.3544 23.1234C88.5383 23.0743 88.72 23.0203 88.8996 22.9617C88.6574 22.7539 88.4228 22.5374 88.1965 22.3128C85.8136 19.9473 84.3396 16.6794 84.3396 13.0709C84.3396 11.4319 84.6456 9.86055 85.2037 8.41053C85.7801 6.91304 86.6317 5.54304 87.6979 4.36086C88.1896 3.81526 89.034 3.76867 89.5836 4.25689C90.1332 4.74512 90.1801 5.58326 89.6883 6.12887C88.8464 7.06226 88.1704 8.15407 87.7073 9.35681C87.2643 10.5078 87.0213 11.7598 87.0213 13.0709C87.0213 15.9447 88.1952 18.547 90.0926 20.4306C91.99 22.3141 94.6116 23.4795 97.5064 23.4795C100.401 23.4795 103.023 22.3142 104.92 20.4307C106.821 18.5441 107.997 15.9412 107.997 13.0709H107.992C107.992 10.197 106.818 7.59473 104.92 5.71121C103.023 3.82769 100.401 2.66225 97.5064 2.66225C96.5563 2.66225 95.6393 2.78633 94.771 3.01839C94.5872 3.06749 94.4054 3.12147 94.2257 3.18019C94.4679 3.38798 94.7023 3.60436 94.9286 3.82903C97.3115 6.19455 98.7857 9.46241 98.7857 13.0709ZM91.559 24.7345C90.7636 25.1351 89.9223 25.4579 89.0457 25.6921C87.9495 25.9851 86.7999 26.1417 85.6187 26.1417C83.6968 26.1417 81.8708 25.7324 80.2244 24.9973L76.4274 31.5261C76.0603 32.1607 75.2439 32.3795 74.6047 32.0149C73.9653 31.6502 73.7449 30.8399 74.1122 30.2054L77.9132 23.6695C77.3424 23.2599 76.8058 22.806 76.3088 22.3128C73.9259 19.9472 72.4519 16.6794 72.4519 13.0709C72.4519 13.0283 72.454 12.9863 72.4578 12.9446C72.492 9.38282 73.9573 6.16348 76.309 3.82886C78.6919 1.46334 81.9838 3.57804e-06 85.6187 3.57804e-06C87.7588 3.57804e-06 89.7797 0.507451 91.5663 1.40728C92.362 1.00661 93.2033 0.684039 94.0797 0.449617C95.1758 0.156627 96.3249 0 97.5064 0C101.142 0 104.433 1.46362 106.816 3.829C109.199 6.19451 110.673 9.46238 110.673 13.0709H110.668C110.668 16.6829 109.195 19.9507 106.816 22.3129C104.433 24.6784 101.141 26.1417 97.5064 26.1417C95.3666 26.1417 93.3456 25.6343 91.559 24.7345ZM138.675 5.29614C138.926 4.60692 139.694 4.25077 140.388 4.50057C141.082 4.75038 141.44 5.51177 141.189 6.20099L135.816 20.8567C135.564 21.546 134.797 21.9021 134.103 21.6523C133.715 21.5127 133.432 21.2137 133.301 20.8567L133.299 20.8506L133.298 20.8486L129.186 9.62981L125.069 20.8568C124.818 21.546 124.05 21.9022 123.356 21.6524C122.969 21.5127 122.685 21.2137 122.555 20.8568L122.553 20.8506L122.552 20.8486L117.181 6.20106C116.93 5.51185 117.288 4.75046 117.983 4.50065C118.677 4.25084 119.444 4.60699 119.696 5.29621L123.812 16.5232L127.926 5.3045V5.30243L127.928 5.29622C128.059 4.93933 128.341 4.64027 128.729 4.50066C129.424 4.25085 130.19 4.60699 130.443 5.29622L134.558 16.523L138.675 5.29614ZM177.535 1.37307C177.535 0.638003 178.135 0.0419633 178.876 0.0419633C179.616 0.0419633 180.216 0.638003 180.216 1.37307V13.0889C180.216 13.1321 180.214 13.1748 180.21 13.2169C180.176 15.6931 179.153 17.9293 177.519 19.5527C175.852 21.207 173.55 22.2306 171.007 22.2306V22.2254C168.462 22.2253 166.159 21.2038 164.496 19.5526C162.829 17.8983 161.799 15.6125 161.799 13.0889H161.804C161.804 10.5617 162.834 8.27633 164.496 6.62502C166.163 4.97075 168.465 3.94713 171.007 3.94713C173.55 3.94713 175.852 4.97089 177.519 6.62517L177.535 6.64099V1.37307ZM177.539 13.195C177.536 13.16 177.535 13.1246 177.535 13.0889C177.535 11.3 176.804 9.6799 175.623 8.50733C174.441 7.33493 172.81 6.60932 171.008 6.60932C169.205 6.60932 167.574 7.33478 166.393 8.50718C165.208 9.68284 164.475 11.3033 164.475 13.0888H164.48C164.48 14.8778 165.211 16.4979 166.392 17.6704C167.577 18.846 169.209 19.5735 171.008 19.5735V19.5683C172.81 19.5683 174.441 18.843 175.623 17.6705C176.783 16.5182 177.511 14.9385 177.539 13.195ZM155.953 17.6705C156.476 17.1508 157.325 17.1508 157.849 17.6705C158.373 18.1903 158.373 19.033 157.849 19.5527C157.006 20.389 155.992 21.0663 154.858 21.5333L154.859 21.535C153.77 21.9832 152.58 22.2306 151.338 22.2306V22.2254C148.791 22.2253 146.49 21.2036 144.827 19.5526C143.16 17.8983 142.128 15.6125 142.128 13.0888C142.128 13.0456 142.13 13.0029 142.135 12.9608C142.169 10.4847 143.191 8.24835 144.827 6.625C146.493 4.97073 148.796 3.94711 151.338 3.94711C153.88 3.94711 156.182 4.97087 157.849 6.62514C159.515 8.2797 160.546 10.5651 160.546 13.0888C160.546 13.8239 159.946 14.42 159.206 14.42H144.949C145.212 15.6748 145.843 16.7971 146.723 17.6704C147.906 18.8458 149.539 19.5735 151.338 19.5735V19.5683C152.227 19.5683 153.069 19.3949 153.833 19.0808L153.834 19.0826L153.838 19.0808C154.628 18.756 155.346 18.2733 155.953 17.6705ZM146.723 8.50719C145.841 9.38261 145.209 10.5047 144.944 11.7577H157.727C157.463 10.5027 156.832 9.38085 155.953 8.50733C154.772 7.33493 153.14 6.60932 151.338 6.60932C149.536 6.60932 147.903 7.33478 146.723 8.50719ZM38.8518 17.6705C39.3754 17.1508 40.2243 17.1508 40.7478 17.6705C41.2714 18.1903 41.2714 19.033 40.7478 19.5527C39.9053 20.389 38.8912 21.0663 37.7575 21.5333L37.7583 21.535C36.6687 21.9832 35.4788 22.2306 34.2365 22.2306V22.2254C31.6908 22.2253 29.3887 21.2038 27.7254 19.5526C26.0589 17.8983 25.0278 15.6125 25.0278 13.0888C25.0278 10.5652 26.0589 8.27941 27.7254 6.62514C29.392 4.97087 31.6942 3.94725 34.2365 3.94725C36.779 3.94725 39.0813 4.97087 40.7477 6.62514C42.4144 8.27941 43.4454 10.5652 43.4454 13.0888C43.4454 13.8239 42.845 14.42 42.1045 14.42H27.8475C28.1115 15.6748 28.7416 16.7971 29.6213 17.6704C30.8056 18.846 32.4379 19.5735 34.2365 19.5735V19.5683C35.1252 19.5683 35.9679 19.3949 36.7318 19.0808L36.7325 19.0826L36.737 19.0808C37.5269 18.756 38.2446 18.2734 38.8518 17.6705ZM29.6213 8.50733C28.7416 9.38069 28.1115 10.5028 27.8475 11.7577H40.6257C40.3617 10.5028 39.7317 9.38069 38.8517 8.50733C37.6707 7.33493 36.0387 6.60948 34.2365 6.60948C32.4346 6.60948 30.8025 7.33493 29.6213 8.50733ZM53.9067 22.2255C51.361 22.2253 49.0586 21.2038 47.3954 19.5526C45.7286 17.8983 44.6977 15.6125 44.6977 13.0889C44.6977 10.5651 45.729 8.27945 47.3954 6.62518C49.0621 4.9709 51.3642 3.94728 53.9067 3.94728C56.449 3.94728 58.7513 4.9709 60.4177 6.62518L60.4336 6.64115V1.37309C60.4336 0.638017 61.0341 0.0419784 61.7746 0.0419784C62.515 0.0419784 63.1154 0.638017 63.1154 1.37309V13.0889C63.1154 13.1321 63.1134 13.1748 63.1093 13.2169C63.075 15.6932 62.0527 17.9294 60.4177 19.5528C58.7513 21.207 56.449 22.2306 53.9067 22.2306V22.2255ZM49.2914 17.6704C50.4757 18.846 52.1081 19.5735 53.9067 19.5735V19.5684C55.7088 19.5684 57.3407 18.843 58.5217 17.6706C59.6823 16.5183 60.4093 14.9385 60.4378 13.1951C60.4352 13.16 60.4336 13.1247 60.4336 13.0889C60.4336 11.2999 59.7029 9.67993 58.5217 8.50737C57.3407 7.33497 55.7088 6.60952 53.9067 6.60952C52.1045 6.60952 50.4725 7.33497 49.2914 8.50737C48.1104 9.67978 47.3795 11.2999 47.3795 13.0889C47.3795 14.8779 48.1102 16.498 49.2914 17.6704ZM21.574 5.29621C21.8256 4.60698 22.5926 4.25084 23.287 4.50065C23.9812 4.75045 24.3399 5.51184 24.0883 6.20106L18.7149 20.8568C18.4633 21.5461 17.6963 21.9022 17.002 21.6524C16.6143 21.5128 16.3312 21.2138 16.2006 20.8568L16.1984 20.8506L16.1977 20.8486L12.0845 9.62988L7.96807 20.8568C7.71643 21.5461 6.94944 21.9022 6.25516 21.6524C5.86735 21.5128 5.58427 21.2138 5.45376 20.8568L5.45152 20.8507L5.45078 20.8486L0.0803966 6.20114C-0.171242 5.51192 0.187518 4.75053 0.881796 4.50072C1.57608 4.25091 2.34306 4.60706 2.59471 5.29628L6.71091 16.5233L10.8243 5.30457L10.825 5.3025L10.8273 5.29629C10.9578 4.9394 11.2409 4.64034 11.6287 4.50073C12.3229 4.25092 13.0899 4.60706 13.3416 5.29629L17.4578 16.5231L21.574 5.29621ZM80.3924 16.105C80.7597 16.7395 80.5393 17.5499 79.9 17.9145C79.2607 18.2791 78.4444 18.0603 78.0771 17.4257C76.873 15.3549 76.6274 12.9979 77.2039 10.862C77.7808 8.72483 79.1823 6.80375 81.2713 5.60664C81.9105 5.24207 82.7269 5.46081 83.0941 6.09545C83.4614 6.7301 83.241 7.54045 82.6017 7.90501C81.161 8.7306 80.1925 10.0627 79.7915 11.5482C79.3902 13.035 79.559 14.6716 80.3924 16.105Z" fill="url(#paint0_linear_678_8594)"/>
</g>
<defs>
<linearGradient id="paint0_linear_678_8594" x1="-0.171226" y1="16.1896" x2="180.216" y2="16.1896" gradientUnits="userSpaceOnUse">
<stop stop-color="#FF375F"/>
<stop offset="1" stop-color="#FD9478"/>
</linearGradient>
<clipPath id="clip0_678_8594">
<rect width="180" height="35.5069" fill="white"/>
</clipPath>
</defs>
</svg>
