<svg width="32" height="32" viewBox="0 0 32 32" fill="none" xmlns="http://www.w3.org/2000/svg">
<path d="M24 27V5C24 3.89543 23.1046 3 22 3L10 3C8.89543 3 8 3.89543 8 5L8 27C8 28.1046 8.89543 29 10 29H22C23.1046 29 24 28.1046 24 27Z" stroke="#FF416C" stroke-width="2" stroke-linecap="round" stroke-linejoin="round"/>
<path d="M16 26C16.8284 26 17.5 25.3284 17.5 24.5C17.5 23.6716 16.8284 23 16 23C15.1716 23 14.5 23.6716 14.5 24.5C14.5 25.3284 15.1716 26 16 26Z" fill="#B3B6BD" stroke="#FF416C" stroke-width="2" stroke-linecap="round" stroke-linejoin="round"/>
</svg>
