<svg width="24" height="24" viewBox="0 0 24 24" fill="none" xmlns="http://www.w3.org/2000/svg">
<path d="M20.6457 13.527L20.2512 13.299C19.7817 13.0283 19.5012 12.5422 19.5012 12C19.5012 11.4578 19.7817 10.9717 20.2512 10.701L20.6457 10.473C20.9016 10.3253 21.126 10.1287 21.3059 9.89427C21.4858 9.65986 21.6178 9.3923 21.6943 9.10688C21.7708 8.82145 21.7902 8.52375 21.7516 8.23079C21.713 7.93784 21.617 7.65536 21.4692 7.3995L20.7192 6.1005C20.4204 5.58419 19.929 5.20751 19.3528 5.05313C18.7765 4.89874 18.1626 4.97925 17.6457 5.277L17.2512 5.50425C17.0238 5.63761 16.7649 5.70792 16.5012 5.70792C16.2375 5.70792 15.9786 5.63761 15.7512 5.50425C15.5221 5.37378 15.3319 5.18469 15.2001 4.9564C15.0683 4.72811 14.9997 4.46885 15.0012 4.20525V3.75C15.0012 2.5095 13.9917 1.5 12.7512 1.5H11.2512C10.0107 1.5 9.0012 2.5095 9.0012 3.75V4.206C9.00273 4.4696 8.93407 4.72886 8.80226 4.95715C8.67046 5.18544 8.48026 5.37453 8.2512 5.505C8.02368 5.63814 7.76481 5.70831 7.5012 5.70831C7.23759 5.70831 6.97872 5.63814 6.7512 5.505L6.3567 5.277C5.83962 4.97942 5.22565 4.899 4.64937 5.05336C4.0731 5.20773 3.58154 5.58429 3.28245 6.1005L2.53245 7.3995C2.38452 7.65533 2.28848 7.93782 2.2498 8.2308C2.21113 8.52378 2.23059 8.82151 2.30708 9.10696C2.38356 9.39241 2.51556 9.65999 2.69554 9.89438C2.87551 10.1288 3.09993 10.3254 3.35595 10.473L3.7512 10.701C4.2207 10.9717 4.5012 11.4578 4.5012 12C4.5012 12.5422 4.2207 13.0283 3.7512 13.299L3.3567 13.527C3.10068 13.6746 2.87626 13.8712 2.69629 14.1056C2.51631 14.34 2.38431 14.6076 2.30783 14.893C2.23134 15.1785 2.21188 15.4762 2.25055 15.7692C2.28923 16.0622 2.38527 16.3447 2.5332 16.6005L3.2832 17.8995C3.58214 18.4157 4.07357 18.7922 4.64972 18.9466C5.22588 19.1009 5.83974 19.0205 6.3567 18.723L6.7512 18.4958C6.97865 18.3624 7.23754 18.2921 7.5012 18.2921C7.76486 18.2921 8.02376 18.3624 8.2512 18.4958C8.48026 18.6262 8.67046 18.8153 8.80226 19.0436C8.93407 19.2719 9.00273 19.5311 9.0012 19.7948V20.25C9.0012 21.4905 10.0107 22.5 11.2512 22.5H12.7512C13.9917 22.5 15.0012 21.4905 15.0012 20.25V19.794C15.0012 19.2518 15.2817 18.7665 15.7512 18.495C15.9787 18.3619 16.2376 18.2917 16.5012 18.2917C16.7648 18.2917 17.0237 18.3619 17.2512 18.495L17.6457 18.723C18.1627 19.0203 18.7765 19.1006 19.3526 18.9463C19.9287 18.7919 20.4201 18.4155 20.7192 17.8995L21.4692 16.6005C21.6171 16.3447 21.7132 16.0622 21.7518 15.7692C21.7905 15.4762 21.7711 15.1785 21.6946 14.893C21.6181 14.6076 21.4861 14.34 21.3061 14.1056C21.1261 13.8712 20.9017 13.6746 20.6457 13.527ZM12.0012 15.75C9.93345 15.75 8.2512 14.0677 8.2512 12C8.2512 9.93225 9.93345 8.25 12.0012 8.25C14.069 8.25 15.7512 9.93225 15.7512 12C15.7512 14.0677 14.069 15.75 12.0012 15.75Z" fill="#FF416C"/>
</svg>
