<svg width="20" height="20" viewBox="0 0 20 20" fill="none" xmlns="http://www.w3.org/2000/svg">
<g clip-path="url(#clip0_1002_6776)">
<path d="M18.0337 3.03756L16.967 1.9709C16.8732 1.87616 16.7616 1.80095 16.6386 1.74963C16.5156 1.6983 16.3836 1.67187 16.2503 1.67188C16.117 1.67187 15.9851 1.6983 15.8621 1.74963C15.739 1.80095 15.6274 1.87616 15.5337 1.9709L1.96699 15.5376C1.87225 15.6313 1.79705 15.7429 1.74572 15.866C1.6944 15.989 1.66797 16.1209 1.66797 16.2542C1.66797 16.3875 1.6944 16.5195 1.74572 16.6425C1.79705 16.7655 1.87225 16.8771 1.96699 16.9709L3.03366 18.0376C3.12684 18.1333 3.23827 18.2094 3.36136 18.2614C3.48445 18.3134 3.61671 18.3401 3.75032 18.3401C3.88394 18.3401 4.01619 18.3134 4.13929 18.2614C4.26238 18.2094 4.37381 18.1333 4.46699 18.0376L18.0337 4.4709C18.1294 4.37771 18.2055 4.26628 18.2575 4.14319C18.3095 4.0201 18.3362 3.88784 18.3362 3.75423C18.3362 3.62062 18.3095 3.48836 18.2575 3.36527C18.2055 3.24217 18.1294 3.13075 18.0337 3.03756Z" stroke="#383737" stroke-width="1.5" stroke-linecap="round" stroke-linejoin="round"/>
<path d="M11.668 5.82812L14.168 8.32812" stroke="#383737" stroke-width="1.5" stroke-linecap="round" stroke-linejoin="round"/>
<path d="M4.16797 5V8.33333" stroke="#383737" stroke-width="1.5" stroke-linecap="round" stroke-linejoin="round"/>
<path d="M15.832 11.6719V15.0052" stroke="#383737" stroke-width="1.5" stroke-linecap="round" stroke-linejoin="round"/>
<path d="M8.33203 1.67188V3.33854" stroke="#383737" stroke-width="1.5" stroke-linecap="round" stroke-linejoin="round"/>
<path d="M5.83333 6.67188H2.5" stroke="#383737" stroke-width="1.5" stroke-linecap="round" stroke-linejoin="round"/>
<path d="M17.5013 13.3281H14.168" stroke="#383737" stroke-width="1.5" stroke-linecap="round" stroke-linejoin="round"/>
<path d="M9.16667 2.5H7.5" stroke="#383737" stroke-width="1.5" stroke-linecap="round" stroke-linejoin="round"/>
</g>
<defs>
<clipPath id="clip0_1002_6776">
<rect width="20" height="20" fill="white"/>
</clipPath>
</defs>
</svg>
