<svg width="28" height="28" viewBox="0 0 28 28" fill="none" xmlns="http://www.w3.org/2000/svg">
<path d="M2.08816 0.5C1.10836 0.5 0.304688 1.30049 0.304688 2.28032V22.3088C0.304688 23.2886 1.10942 24.0902 2.08816 24.0902H8.53545C8.77065 24.0891 8.96048 23.8972 8.95943 23.662C8.95943 23.4278 8.76959 23.238 8.53545 23.2369H2.08924C1.56717 23.2369 1.15796 22.8309 1.15796 22.3088L1.15691 6.03089H26.4525V22.3088C26.4525 22.8309 26.0433 23.2369 25.5212 23.2369H21.1759C21.063 23.2359 20.9544 23.2812 20.8742 23.3603C20.7941 23.4405 20.7487 23.5491 20.7487 23.662C20.7477 23.7759 20.793 23.8845 20.8732 23.9657C20.9533 24.0459 21.063 24.0902 21.1759 24.0902H25.5202C26.5 24.0902 27.3036 23.2886 27.3036 22.3088L27.3047 2.28033C27.3047 1.30054 26.5 0.500019 25.5212 0.500019L2.08816 0.5ZM2.08816 1.35217H25.5211C26.0431 1.35217 26.4523 1.75822 26.4523 2.28029V5.17737H1.15672V2.28029C1.15672 1.75822 1.56609 1.35217 2.08816 1.35217ZM3.39279 2.68844C3.07744 2.68844 2.81484 2.95106 2.81484 3.26746C2.81484 3.58281 3.0764 3.84331 3.39279 3.84331C3.70815 3.84331 3.96865 3.5828 3.96865 3.26746C3.96865 2.9521 3.70814 2.68844 3.39279 2.68844ZM5.57811 2.68844C5.26275 2.68844 5.00015 2.95106 5.00015 3.26746C5.00015 3.58281 5.26171 3.84331 5.57811 3.84331C5.89346 3.84331 6.15396 3.5828 6.15396 3.26746C6.15396 2.9521 5.89345 2.68844 5.57811 2.68844ZM7.76342 2.68844C7.44806 2.68844 7.18546 2.95106 7.18546 3.26746C7.18546 3.58281 7.44702 3.84331 7.76342 3.84331C8.07878 3.84331 8.33927 3.5828 8.33927 3.26746C8.33927 2.9521 8.07877 2.68844 7.76342 2.68844ZM13.3986 7.96718C13.2056 7.96613 13.0368 8.09585 12.9872 8.28254L12.3101 10.8054V10.8064C12.2806 10.915 12.2954 11.0321 12.3523 11.1302C12.4093 11.2283 12.5031 11.3 12.6118 11.3285C12.7215 11.358 12.8375 11.3422 12.9356 11.2863C13.0336 11.2293 13.1054 11.1365 13.1338 11.0268L13.8109 8.50402C13.8405 8.39433 13.8247 8.27726 13.7688 8.17918C13.7118 8.0811 13.6179 8.01044 13.5083 7.98091C13.4724 7.97141 13.4355 7.96614 13.3986 7.96614L13.3986 7.96718ZM8.48701 8.35741C8.41213 8.35846 8.33831 8.37745 8.27397 8.41542C8.07042 8.53354 8.00187 8.79403 8.11999 8.99759L9.42567 11.2599H9.42462C9.48157 11.358 9.57438 11.4297 9.68407 11.4592C9.7927 11.4887 9.90977 11.474 10.0079 11.417C10.1059 11.3611 10.1787 11.2673 10.2082 11.1576C10.2367 11.0468 10.2209 10.9298 10.1639 10.8317L8.85508 8.56939C8.77914 8.43861 8.63889 8.35741 8.48701 8.35741ZM11.071 11.7197C10.3116 11.7397 9.60918 12.3514 9.60813 13.1878C9.60918 13.1888 9.61024 13.1899 9.61129 13.191L9.59547 24.3378C9.59442 25.2712 10.6459 25.8756 11.4549 25.4105L14.3247 23.762L16.0396 26.716C16.3602 27.2676 17.0785 27.4585 17.6311 27.1411L19.9556 25.8037C20.5083 25.4863 20.7034 24.767 20.3838 24.2154L18.6721 21.2643L21.5376 19.6148C22.3465 19.1497 22.3476 17.9357 21.5376 17.4717L11.826 11.9102C11.5834 11.771 11.324 11.712 11.0709 11.7183L11.071 11.7197ZM5.69315 12.4147C5.50015 12.4158 5.33141 12.5455 5.28184 12.7311C5.25231 12.8408 5.26813 12.9579 5.32402 13.0559C5.38098 13.154 5.47484 13.2247 5.58453 13.2542L8.10734 13.9303C8.3341 13.9914 8.56823 13.8565 8.62941 13.6286C8.65894 13.519 8.64312 13.4029 8.58617 13.3049C8.53027 13.2068 8.4364 13.135 8.32671 13.1055L5.8039 12.4295V12.4305C5.76804 12.42 5.73007 12.4147 5.69315 12.4147ZM11.0753 12.5602C11.1839 12.5602 11.2957 12.5887 11.4054 12.651L21.1138 18.2135C21.3901 18.3717 21.3901 18.7187 21.1138 18.8779L17.877 20.7405L17.876 20.7383C17.7779 20.7953 17.7062 20.8881 17.6766 20.9978C17.6471 21.1064 17.6619 21.2235 17.7188 21.3216L19.6447 24.6439C19.7333 24.7968 19.6858 24.9761 19.5318 25.0647L17.2073 26.4021C17.0522 26.4907 16.8645 26.4411 16.7759 26.2892L14.8501 22.9669L14.849 22.9658C14.7309 22.7633 14.4704 22.6948 14.2668 22.8118L11.0301 24.6712C10.7538 24.8305 10.4479 24.6523 10.4479 24.338L10.4637 13.1878V13.1857C10.4669 12.8145 10.7506 12.5592 11.0744 12.5592L11.0753 12.5602Z" fill="url(#paint0_linear_1096_3696)"/>
<defs>
<linearGradient id="paint0_linear_1096_3696" x1="0.304687" y1="14.7541" x2="30.3047" y2="14.7541" gradientUnits="userSpaceOnUse">
<stop stop-color="#FF416C"/>
<stop offset="1" stop-color="#FC927B"/>
</linearGradient>
</defs>
</svg>
