<svg width="27" height="27" viewBox="0 0 27 27" xmlns="http://www.w3.org/2000/svg">
<path fill-rule="evenodd" clip-rule="evenodd" d="M11.1608 0H15.7479C15.9731 0 16.1557 0.182588 16.1557 0.4078V2.59069L17.6245 3.07951L17.6249 3.07891C18.1061 3.27842 18.5692 3.51059 19.0112 3.77298L20.5541 2.23005C20.7134 2.07104 20.9716 2.07104 21.1306 2.23005L24.3743 5.47371C24.5333 5.63302 24.5333 5.89118 24.3743 6.05019L22.8313 7.59312C23.3582 8.48067 23.7567 9.43986 24.0136 10.4486H26.1965C26.4217 10.4486 26.6043 10.6312 26.6043 10.8564V15.4435C26.6043 15.6687 26.4217 15.8513 26.1965 15.8513H24.0136L23.5248 17.3202L23.5254 17.3205C23.3259 17.8017 23.0937 18.2648 22.8313 18.7068L24.3743 20.2497C24.5333 20.409 24.5333 20.6672 24.3743 20.8262L21.1306 24.0696C20.9713 24.2289 20.7131 24.2289 20.5541 24.0696L19.0112 22.5266C18.1233 23.0535 17.1645 23.452 16.1557 23.7089V25.8918C16.1557 26.117 15.9731 26.2996 15.7479 26.2996H11.1608C10.9356 26.2996 10.753 26.117 10.753 25.8918V23.7089C9.74576 23.4523 8.78475 23.0529 7.89751 22.5266L6.35428 24.0699C6.19496 24.2292 5.9368 24.2292 5.77779 24.0699L2.53414 20.8262C2.37513 20.6672 2.37513 20.4087 2.53414 20.2497L4.07737 18.7065C3.81618 18.2664 3.58402 17.8032 3.3842 17.3205L3.38359 17.3208C3.18801 16.8492 3.02446 16.3583 2.89538 15.8513H0.712488C0.487275 15.8513 0.304688 15.6687 0.304688 15.4435V10.8561C0.304688 10.6309 0.487275 10.4483 0.712488 10.4483H2.89538C3.15203 9.44107 3.55137 8.48006 4.07767 7.59282L2.53444 6.04959C2.37543 5.89058 2.37543 5.63211 2.53444 5.47311L5.7781 2.22945C5.93741 2.07014 6.19557 2.07014 6.35458 2.22945L7.89781 3.77268C8.78536 3.24577 9.74455 2.84735 10.7533 2.59039V0.4078C10.753 0.182588 10.9356 0 11.1608 0ZM13.4543 6.37093C9.71069 6.37093 6.67562 9.406 6.67562 13.1497C6.67562 16.8933 9.71069 19.9284 13.4543 19.9284C17.198 19.9284 20.2331 16.8933 20.2331 13.1497C20.2331 9.406 17.198 6.37093 13.4543 6.37093ZM17.6711 8.93321C13.9238 5.18592 7.49122 7.854 7.49122 13.1497C7.49122 18.4453 13.9238 21.1134 17.6711 17.3664C19.9997 15.0375 19.9997 11.2618 17.6711 8.93321ZM15.3401 0.8156H11.5686V2.91083H11.5671C11.5674 3.09735 11.438 3.26573 11.2485 3.30744C10.2001 3.53991 8.95887 4.03175 8.06982 4.62304C7.91081 4.73399 7.69013 4.71857 7.54835 4.57679L6.06619 3.09463L3.39931 5.7615L4.88148 7.24366L4.88118 7.24397C5.01328 7.37577 5.0414 7.58617 4.9371 7.75032C4.3972 8.60068 3.79532 9.92626 3.61969 10.9096C3.59339 11.1095 3.42259 11.2639 3.21551 11.2639H1.12029V15.0357H3.21551V15.0372C3.40203 15.0369 3.57011 15.1663 3.61213 15.3558C3.73849 15.9232 3.91473 16.4758 4.13541 17.0085L4.1348 17.0088C4.35367 17.5121 4.62211 18.075 4.92773 18.5345C5.03867 18.6935 5.02326 18.9139 4.88148 19.0557L3.39931 20.5378L6.06619 23.2047L7.54835 21.7225L7.54866 21.7228C7.68046 21.5907 7.89086 21.5629 8.055 21.6669C8.90537 22.2068 10.2309 22.8087 11.2143 22.9843C11.4141 23.0106 11.5686 23.1814 11.5686 23.3885V25.4837H15.3404V23.3885H15.3419C15.3416 23.202 15.471 23.0339 15.6605 22.9919C16.7089 22.7594 17.9501 22.2676 18.8392 21.6763C18.9982 21.5653 19.2189 21.5808 19.3606 21.7225L20.8425 23.2044L23.5094 20.5375L22.0275 19.0557L22.0278 19.0554C21.8957 18.9236 21.8676 18.7132 21.9719 18.549C22.2821 18.0608 22.5511 17.5451 22.7739 17.0076L22.7745 17.0079C22.99 16.4873 23.1633 15.9465 23.2893 15.3897C23.3156 15.1899 23.4864 15.0354 23.6935 15.0354H25.7887V11.2639H23.6932V11.2624C23.5067 11.2627 23.3386 11.1333 23.2966 10.9438C23.0641 9.89542 22.5726 8.65419 21.981 7.76513C21.87 7.60612 21.8854 7.38544 22.0272 7.24366L23.5091 5.7618L20.8422 3.09493L19.3603 4.57679L19.36 4.57649C19.2282 4.70859 19.0178 4.73671 18.8537 4.63242C18.3655 4.32226 17.8498 4.05321 17.3123 3.83042L17.3126 3.82981C16.7923 3.61428 16.2512 3.44106 15.6944 3.315C15.4946 3.2887 15.3401 3.1179 15.3401 2.91083V0.8156Z" fill="url(#paint0_linear_1096_3696)" />
<defs>
<linearGradient id="paint0_linear_1096_3696" x1="0.304687" y1="14.7541" x2="30.3047" y2="14.7541" gradientUnits="userSpaceOnUse">
<stop stop-color="#FF416C"/>
<stop offset="1" stop-color="#FC927B"/>
</linearGradient>
</defs>
</svg>
