<svg width="31" height="27" viewBox="0 0 31 27" fill="none" xmlns="http://www.w3.org/2000/svg">
<path d="M29.628 3.23387C29.2348 2.71903 28.6893 2.38602 28.0528 2.32462L11.6353 0.0231339C10.3328 -0.158716 9.12127 0.750523 8.90872 2.08254L8.8178 2.68831L5.75824 2.77924C4.45576 2.83946 3.45675 3.89986 3.45675 5.17166L2.27592 5.38421C0.973437 5.59676 0.125582 6.8083 0.336949 8.14032L3.18399 24.4974C3.36584 25.6782 4.36483 26.4658 5.54687 26.4658C5.6685 26.4658 5.81965 26.4658 5.97079 26.4351L21.6915 23.679L23.0247 23.6483C23.4179 23.6176 23.8123 23.4972 24.1146 23.3153L25.0841 23.4369C25.2057 23.4676 25.3262 23.4676 25.4478 23.4676C25.9319 23.4676 26.4173 23.3165 26.8412 23.013C27.356 22.6198 27.7197 22.0435 27.8107 21.4071L29.1427 11.8659C29.1427 11.8352 29.1734 11.8352 29.1734 11.8057V11.7455L30.0212 5.80804C30.0212 5.77734 30.0519 5.77734 30.0519 5.74782V5.68759L30.1428 5.0216C30.1724 4.38393 30.0213 3.74875 29.628 3.23387ZM11.2716 0.749344C11.3625 0.749344 11.4228 0.749344 11.5137 0.780046L27.9312 3.052C28.3551 3.11222 28.7495 3.32477 29.0211 3.68849C29.2939 4.05218 29.3848 4.47612 29.3246 4.90004L29.2951 5.26255L9.60671 2.50644L9.66693 2.17343C9.78738 1.32557 10.4533 0.749344 11.2716 0.749344ZM28.4458 11.3216L8.75739 8.5655L9.51432 3.26471L29.2027 6.02082L28.4458 11.3216ZM8.75739 20.4389C8.33348 20.3787 7.93907 20.1661 7.66746 19.8024C7.39468 19.4387 7.30376 19.0148 7.33445 18.5909L8.63693 9.32242L20.7219 11.0181L19.1773 21.8927L8.75739 20.4389ZM5.75802 3.5066L8.696 3.41568L6.57519 18.4396C6.48427 19.0761 6.66612 19.7114 7.02982 20.2262C7.42305 20.7411 7.96861 21.0741 8.60507 21.1355L21.2967 22.9221L6.42519 23.3767C5.51594 23.4075 4.75902 22.7108 4.72948 21.8015L4.21464 5.20232C4.18394 4.29307 4.84995 3.56682 5.75802 3.5066ZM5.81943 25.7089C4.91017 25.86 4.06232 25.285 3.91117 24.3757L1.06413 8.01865C0.912978 7.10939 1.48804 6.26154 2.39732 6.11039L3.45772 5.92854L3.94188 21.8618C4.00211 23.1642 5.0625 24.1632 6.36498 24.1632H6.42521L16.3608 23.8598L5.81943 25.7089ZM27.0522 21.3174C26.992 21.772 26.7488 22.1653 26.3862 22.4073C26.0225 22.6801 25.5986 22.771 25.1747 22.7108L19.934 21.9834L21.4786 11.1089L28.3242 12.0783L27.0522 21.3174Z" fill="url(#paint0_linear_1096_3696)"/>
<defs>
<linearGradient id="paint0_linear_1096_3696" x1="0.304687" y1="14.7541" x2="30.3047" y2="14.7541" gradientUnits="userSpaceOnUse">
<stop stop-color="#FF416C"/>
<stop offset="1" stop-color="#FC927B"/>
</linearGradient>
</defs>
</svg>
