<svg width="31" height="30" viewBox="0 0 31 30" fill="none" xmlns="http://www.w3.org/2000/svg">
<path d="M15.3047 16.1393C16.4092 16.1393 17.4888 15.8118 18.4072 15.1982C19.3255 14.5846 20.0413 13.7124 20.4639 12.692C20.8866 11.6716 20.9972 10.5488 20.7817 9.46555C20.5662 8.38229 20.0344 7.38726 19.2534 6.60628C18.4724 5.8253 17.4774 5.29344 16.3941 5.07797C15.3109 4.86249 14.1881 4.97308 13.1677 5.39575C12.1473 5.81841 11.2751 6.53417 10.6615 7.45251C10.0479 8.37085 9.72036 9.45052 9.72036 10.555C9.72204 12.0355 10.3109 13.455 11.3578 14.5019C12.4047 15.5488 13.8241 16.1377 15.3047 16.1393ZM15.3047 5.688C16.2672 5.688 17.2081 5.97342 18.0085 6.50818C18.8088 7.04294 19.4326 7.80301 19.8009 8.69227C20.1692 9.58154 20.2656 10.5601 20.0778 11.5041C19.8901 12.4481 19.4266 13.3153 18.7459 13.9959C18.0653 14.6765 17.1982 15.14 16.2541 15.3278C15.3101 15.5156 14.3316 15.4192 13.4423 15.0509C12.553 14.6825 11.793 14.0588 11.2582 13.2584C10.7234 12.4581 10.438 11.5172 10.438 10.5547C10.4396 9.26443 10.9529 8.0275 11.8652 7.11517C12.7775 6.20283 14.0145 5.68959 15.3047 5.688ZM15.3047 0C12.338 0 9.43788 0.879734 6.97114 2.52796C4.5044 4.17618 2.58182 6.51886 1.4465 9.25975C0.311187 12.0006 0.0141368 15.0166 0.592915 17.9263C1.17169 20.8361 2.6003 23.5088 4.69809 25.6066C6.79588 27.7044 9.46862 29.133 12.3783 29.7118C15.2881 30.2906 18.3041 29.9935 21.0449 28.8582C23.7858 27.7229 26.1285 25.8003 27.7767 23.3335C29.425 20.8668 30.3047 17.9667 30.3047 15C30.3002 11.0231 28.7184 7.21044 25.9063 4.39837C23.0942 1.5863 19.2816 0.00449947 15.3047 0ZM15.3047 0.717C17.9215 0.715656 20.4884 1.43362 22.7248 2.79243C24.9612 4.15124 26.781 6.09862 27.9855 8.42177C29.19 10.7449 29.7328 13.3544 29.5545 15.9652C29.3762 18.576 28.4838 21.0875 26.9747 23.2253C25.7089 20.173 23.3009 17.7358 20.264 16.4333C20.2052 16.4081 20.1406 16.3991 20.0771 16.4073C20.0136 16.4155 19.9535 16.4406 19.903 16.48C18.5876 17.5008 16.9699 18.0549 15.3049 18.0549C13.6398 18.0549 12.0221 17.5008 10.7067 16.48C10.6562 16.4406 10.5961 16.4155 10.5326 16.4073C10.4691 16.3991 10.4045 16.4081 10.3457 16.4333C7.30862 17.7358 4.90048 20.1731 3.63469 23.2257C2.12562 21.0878 1.23319 18.5762 1.05493 15.9655C0.876672 13.3547 1.41944 10.7452 2.62392 8.42202C3.8284 6.09886 5.64826 4.15146 7.88463 2.79261C10.121 1.43375 12.6879 0.715731 15.3047 0.717ZM15.3047 29.2837C13.1588 29.2838 11.0406 28.7998 9.10774 27.8677C7.1749 26.9355 5.47729 25.5793 4.14136 23.9C4.694 22.4185 5.53511 21.0614 6.61596 19.9074C7.69681 18.7533 8.99592 17.8251 10.438 17.1767C11.8489 18.2133 13.5539 18.7724 15.3047 18.7724C17.0555 18.7724 18.7605 18.2133 20.1714 17.1767C21.6135 17.8251 22.9126 18.7532 23.9934 19.9073C25.0743 21.0614 25.9154 22.4185 26.468 23.9C25.132 25.5792 23.4344 26.9353 21.5015 27.8673C19.5687 28.7993 17.4505 29.2832 15.3047 29.283V29.2837Z" fill="url(#paint0_linear_1096_3696)"/>
<defs>
<linearGradient id="paint0_linear_1096_3696" x1="0.304687" y1="14.7541" x2="30.3047" y2="14.7541" gradientUnits="userSpaceOnUse">
<stop stop-color="#FF416C"/>
<stop offset="1" stop-color="#FC927B"/>
</linearGradient>
</defs>
</svg>
