<svg width="29" height="31" viewBox="0 0 29 31" fill="none" xmlns="http://www.w3.org/2000/svg">
<path d="M11.803 30.4991C11.6387 30.4976 11.4969 30.3867 11.458 30.2263L9.80638 23.6834C9.55251 22.6883 8.7864 21.906 7.79931 21.6333L1.26582 19.82C1.10901 19.7765 1 19.6341 1 19.4708C1 19.3075 1.10902 19.1651 1.26582 19.1231L7.7844 17.4687H7.78589C8.78048 17.2154 9.56446 16.4466 9.83777 15.4531L11.6447 8.8967C11.6866 8.73785 11.8284 8.62695 11.9912 8.62695C12.154 8.62695 12.2973 8.73785 12.3377 8.8967L13.9863 15.4381C14.2387 16.4377 15.0063 17.2229 15.9949 17.4972L22.5268 19.303V19.3045C22.6837 19.3464 22.7927 19.4888 22.7927 19.6522C22.7927 19.8155 22.6836 19.9579 22.5268 19.9998L16.001 21.6617C15.0049 21.9165 14.2224 22.6853 13.9476 23.6788L12.1482 30.2352C12.1063 30.3911 11.9643 30.5006 11.803 30.4991ZM1.75426 19.4756L7.92648 21.181C9.07486 21.5002 9.9649 22.4128 10.2576 23.5712L11.8122 29.7455L13.5116 23.5563C13.8312 22.4039 14.7407 21.5122 15.895 21.217L22.0462 19.6569L15.8786 17.9501C14.7302 17.6309 13.8402 16.7182 13.546 15.5598L11.9869 9.38705L10.2875 15.5748C9.97089 16.7272 9.06145 17.6218 7.90556 17.9156L1.75426 19.4756Z" fill="#1B1B1B" stroke="#1B1B1B" stroke-width="0.3"/>
<path d="M17.8925 11.1999C17.7297 11.1984 17.5879 11.0875 17.549 10.9287L16.7949 7.95246C16.6739 7.4759 16.3081 7.09975 15.8361 6.96939L12.8659 6.14817C12.7091 6.10321 12.6015 5.95935 12.603 5.796C12.606 5.63265 12.7165 5.49179 12.8733 5.45132L15.8347 4.70054H15.8362C16.3111 4.57766 16.6844 4.21052 16.8158 3.73696L17.6356 0.765252C17.6775 0.607898 17.8193 0.5 17.9806 0.5C18.1404 0.5 18.2823 0.607898 18.3241 0.765252L19.0737 3.73696C19.1932 4.21351 19.5591 4.58967 20.0325 4.72003L23.0027 5.54125H23.0012C23.1595 5.58471 23.2671 5.73007 23.2656 5.89342C23.2656 6.05676 23.1536 6.19913 22.9938 6.23659L20.0324 6.98887C19.5576 7.11026 19.1827 7.4774 19.0513 7.95096L18.233 10.9316H18.2345C18.1941 11.089 18.0538 11.1984 17.8925 11.1999ZM13.3558 5.80363L15.9557 6.52445V6.52595C16.5874 6.69979 17.0757 7.20181 17.237 7.83873L17.8926 10.4478L18.6094 7.83873C18.7856 7.20484 19.2844 6.71328 19.9206 6.55143L22.5205 5.89356L19.9206 5.17424C19.2829 4.9989 18.7901 4.49389 18.6303 3.85099L17.9747 1.24194L17.2579 3.85099H17.2564C17.0802 4.48338 16.5814 4.97494 15.9468 5.13829L13.3558 5.80363Z" fill="#1B1B1B" stroke="#1B1B1B" stroke-width="0.3"/>
<path d="M24.9878 16.244C24.8235 16.244 24.6817 16.1316 24.6429 15.9713L24.3263 14.7125V14.714C24.2292 14.3259 23.9305 14.0202 23.5467 13.9138L22.2863 13.5661C22.1295 13.5226 22.0205 13.3788 22.022 13.2154C22.0235 13.0521 22.1355 12.9097 22.2938 12.8708L23.5467 12.5531C23.9335 12.4541 24.2366 12.1559 24.3426 11.7708L24.6891 10.506H24.6906C24.7324 10.3486 24.8743 10.2407 25.0356 10.2422C25.1998 10.2422 25.3417 10.3546 25.3805 10.5134L25.6971 11.7707C25.7942 12.1574 26.0929 12.4631 26.4767 12.5695L27.7371 12.9172V12.9187C27.8939 12.9606 28.0029 13.106 27.9999 13.2693C27.9999 13.4327 27.8879 13.575 27.7296 13.614L26.4767 13.9332C26.0899 14.0306 25.7853 14.3288 25.6792 14.7155L25.3328 15.9803C25.291 16.1361 25.1491 16.2455 24.9878 16.244ZM22.7702 13.2244L23.6647 13.4716V13.4702C24.2083 13.6215 24.6279 14.0531 24.7668 14.6016L24.9908 15.4902L25.2372 14.5926H25.2357C25.3865 14.0471 25.8166 13.6245 26.3632 13.4866L27.2487 13.2604L26.3542 13.0131C25.8106 12.8632 25.391 12.4317 25.2521 11.8847L25.0281 10.996L24.7817 11.8921C24.6324 12.4376 24.2023 12.8602 23.6557 12.9996L22.7702 13.2244Z" fill="#1B1B1B" stroke="#1B1B1B" stroke-width="0.3"/>
</svg>
