<svg width="33" height="31" viewBox="0 0 33 31" fill="none" xmlns="http://www.w3.org/2000/svg">
<path d="M32.1042 0.839088C31.7764 0.577667 31.3698 0.46148 30.9548 0.511275C30.5399 0.55692 30.1705 0.764397 29.9091 1.09221L19.9585 13.6238C19.7676 13.8645 19.3776 14.238 19.0954 14.4537C17.6514 15.5451 17.4356 16.3874 17.2447 17.126C17.1244 17.5866 17.0331 17.9518 16.643 18.346C16.4563 18.5327 16.3194 18.512 16.0953 18.4746C15.9584 18.4539 15.8007 18.429 15.6389 18.4705C15.3774 18.5369 15.2073 18.7692 15.1534 18.9684C15.1036 19.1552 15.1534 19.3377 15.2778 19.4539C15.5849 19.7402 16.3567 20.1925 17.3526 20.1925C17.5559 20.1925 17.7676 20.1759 17.9833 20.1303C19.5643 19.8232 20.942 18.4456 22.0789 16.0347C22.1204 15.9434 22.1702 15.8604 22.2283 15.7899L32.3574 3.0342C32.8926 2.35782 32.7806 1.37438 32.1042 0.839088ZM21.5146 15.7691C20.4855 17.9601 19.2199 19.2547 17.8672 19.5162C16.8879 19.707 16.1119 19.3087 15.7924 19.0722C15.8339 19.0639 15.9169 19.0763 15.9957 19.0888C16.2654 19.1303 16.6762 19.1967 17.087 18.7817C17.5933 18.2672 17.7219 17.7651 17.8464 17.2796C18.0207 16.6073 18.1991 15.9102 19.4689 14.9475C19.7137 14.7608 20.0706 14.4371 20.3237 14.1467L21.8051 15.321L21.7428 15.3998C21.6557 15.5077 21.581 15.6322 21.5146 15.7691ZM31.8677 2.64829L22.1868 14.8355L20.7137 13.6653L30.3988 1.47812C30.5564 1.28309 30.7764 1.1586 31.0253 1.12956C31.2743 1.10051 31.5191 1.17105 31.7183 1.32873C32.125 1.6524 32.1914 2.24578 31.8719 2.64829H31.8677Z" fill="#1B1B1B" stroke="#1B1B1B" stroke-width="0.2"/>
<path d="M27.7887 10.4539C27.6684 10.5742 27.6684 10.7734 27.7887 10.8937C30.4652 13.5494 31.7764 16.8774 31.4777 20.2634C31.0959 24.6121 28.9838 28.0189 25.8302 29.3716C24.1828 30.0771 22.4939 30.0397 21.5354 29.2762C20.9793 28.8363 21.3113 27.9193 21.8341 26.6786C22.1039 26.0354 22.3611 25.4296 22.4192 24.8943C22.4773 24.3465 22.1993 23.8403 21.7097 23.5955C21.2283 23.3548 20.6598 23.4378 20.2656 23.8113C18.4357 25.525 15.6928 27.6911 13.033 28.2637C10.4022 28.8322 7.67177 28.3509 5.54305 26.94C3.56372 25.6246 2.26907 23.6079 1.79602 21.1016C1.19018 17.8899 2.12798 14.62 4.43098 11.8979C7.42279 8.35837 12.2321 6.21721 16.9501 6.3085C18.9378 6.34584 20.9918 6.79814 22.8881 7.61975C23.0458 7.68615 23.2284 7.6156 23.2989 7.45792C23.3653 7.30024 23.2948 7.11766 23.1371 7.04712C21.1661 6.19646 19.0291 5.72756 16.9626 5.68607C12.062 5.59893 7.07008 7.81893 3.95793 11.4954C1.5346 14.3586 0.551156 17.811 1.19019 21.2095C1.69228 23.886 3.08238 26.0437 5.20279 27.4504C7.46844 28.9525 10.3731 29.4712 13.1658 28.8654C15.9667 28.2596 18.805 26.0271 20.693 24.2553C20.942 24.0229 21.2408 24.0478 21.4358 24.1432C21.6391 24.2428 21.8383 24.4752 21.8051 24.8196C21.7595 25.2636 21.5188 25.8279 21.2657 26.4296C20.7594 27.6288 20.1826 28.9857 21.1495 29.7575C21.7678 30.2513 22.5977 30.5003 23.523 30.5003C24.3239 30.5003 25.1994 30.3136 26.075 29.9401C29.4403 28.4961 31.6935 24.8984 32.096 20.3132C32.4113 16.7404 31.0378 13.2341 28.2244 10.4497C28.1041 10.3294 27.9049 10.3294 27.7846 10.4497L27.7887 10.4539Z" fill="#1B1B1B" stroke="#1B1B1B" stroke-width="0.2"/>
<path d="M3.46826 17.2083C3.46826 18.3577 4.40606 19.2955 5.55548 19.2955C6.7049 19.2955 7.6427 18.3577 7.6427 17.2083C7.6427 16.0589 6.7049 15.1211 5.55548 15.1211C4.40606 15.1211 3.46826 16.0589 3.46826 17.2083ZM7.02027 17.2083C7.02027 18.0175 6.36464 18.6731 5.55548 18.6731C4.74632 18.6731 4.09069 18.0175 4.09069 17.2083C4.09069 16.3992 4.74632 15.7435 5.55548 15.7435C6.36464 15.7435 7.02027 16.3992 7.02027 17.2083Z" fill="#1B1B1B" stroke="#1B1B1B" stroke-width="0.2"/>
<path d="M10.199 14.2291C11.3485 14.2291 12.2863 13.2913 12.2863 12.1419C12.2863 10.9925 11.3485 10.0547 10.199 10.0547C9.04961 10.0547 8.11182 10.9925 8.11182 12.1419C8.11182 13.2913 9.04961 14.2291 10.199 14.2291ZM10.199 10.6771C11.0082 10.6771 11.6638 11.3327 11.6638 12.1419C11.6638 12.9511 11.0082 13.6067 10.199 13.6067C9.38987 13.6067 8.73425 12.9511 8.73425 12.1419C8.73425 11.3327 9.38987 10.6771 10.199 10.6771Z" fill="#1B1B1B" stroke="#1B1B1B" stroke-width="0.2"/>
<path d="M16.4686 12.4537C17.618 12.4537 18.5558 11.5159 18.5558 10.3665C18.5558 9.21709 17.618 8.2793 16.4686 8.2793C15.3191 8.2793 14.3813 9.21709 14.3813 10.3665C14.3813 11.5159 15.3191 12.4537 16.4686 12.4537ZM16.4686 8.90173C17.2777 8.90173 17.9334 9.55736 17.9334 10.3665C17.9334 11.1757 17.2777 11.8313 16.4686 11.8313C15.6594 11.8313 15.0038 11.1757 15.0038 10.3665C15.0038 9.55736 15.6594 8.90173 16.4686 8.90173Z" fill="#1B1B1B" stroke="#1B1B1B" stroke-width="0.2"/>
<path d="M27.3821 19.2955C28.5316 19.2955 29.4694 18.3577 29.4694 17.2083C29.4694 16.0589 28.5316 15.1211 27.3821 15.1211C26.2327 15.1211 25.2949 16.0589 25.2949 17.2083C25.2949 18.3577 26.2327 19.2955 27.3821 19.2955ZM27.3821 15.7435C28.1913 15.7435 28.8469 16.3992 28.8469 17.2083C28.8469 18.0175 28.1913 18.6731 27.3821 18.6731C26.573 18.6731 25.9174 18.0175 25.9174 17.2083C25.9174 16.3992 26.573 15.7435 27.3821 15.7435Z" fill="#1B1B1B" stroke="#1B1B1B" stroke-width="0.2"/>
<path d="M11.0246 27.0473C11.1491 27.0473 11.2736 27.0431 11.3981 27.0348C12.2653 26.9726 13.0745 26.6946 13.6679 26.2506C14.3028 25.7775 14.6264 25.1717 14.5849 24.5451C14.5434 23.9185 14.1326 23.3625 13.4355 22.9849C12.784 22.6322 11.9458 22.4703 11.0786 22.5326C10.2113 22.5948 9.40216 22.8729 8.80878 23.3169C8.1739 23.7899 7.85023 24.3957 7.89173 25.0223C7.97472 26.1966 9.31917 27.0473 11.0246 27.0473ZM9.17809 23.8148C9.67603 23.4413 10.369 23.209 11.1201 23.155C11.228 23.1467 11.3358 23.1426 11.4437 23.1426C12.0745 23.1426 12.6679 23.2795 13.1367 23.5326C13.6388 23.8065 13.9335 24.18 13.9625 24.5866C13.9916 24.9933 13.755 25.4082 13.2986 25.7485C12.8006 26.1219 12.1077 26.3543 11.3566 26.4083C9.87936 26.5161 8.58055 25.8564 8.51416 24.9725C8.48511 24.5659 8.72164 24.1509 9.17809 23.8106V23.8148Z" fill="#1B1B1B" stroke="#1B1B1B" stroke-width="0.2"/>
</svg>
