<svg width="24" height="21" viewBox="0 0 24 21" fill="none" xmlns="http://www.w3.org/2000/svg">
<path d="M1 1.5H8.5V19.5H6.5C6.36739 19.5 6.24021 19.5527 6.14645 19.6464C6.05268 19.7402 6 19.8674 6 20C6 20.1326 6.05268 20.2598 6.14645 20.3536C6.24021 20.4473 6.36739 20.5 6.5 20.5H11.5C11.6326 20.5 11.7598 20.4473 11.8536 20.3536C11.9473 20.2598 12 20.1326 12 20C12 19.8674 11.9473 19.7402 11.8536 19.6464C11.7598 19.5527 11.6326 19.5 11.5 19.5H9.5V1.5H17V4C17 4.13261 17.0527 4.25979 17.1464 4.35355C17.2402 4.44732 17.3674 4.5 17.5 4.5C17.6326 4.5 17.7598 4.44732 17.8536 4.35355C17.9473 4.25979 18 4.13261 18 4V1C18 0.867392 17.9473 0.740215 17.8536 0.646447C17.7598 0.552679 17.6326 0.5 17.5 0.5H0.5C0.367392 0.5 0.240215 0.552679 0.146447 0.646447C0.0526784 0.740215 0 0.867392 0 1L0 4C0 4.13261 0.0526784 4.25979 0.146447 4.35355C0.240215 4.44732 0.367392 4.5 0.5 4.5C0.632608 4.5 0.759785 4.44732 0.853553 4.35355C0.947322 4.25979 1 4.13261 1 4V1.5Z" fill="#1B1B1B"/>
<path d="M23.5 9.5H14.5C14.3674 9.5 14.2402 9.55268 14.1464 9.64645C14.0527 9.74021 14 9.86739 14 10V12C14 12.1326 14.0527 12.2598 14.1464 12.3536C14.2402 12.4473 14.3674 12.5 14.5 12.5C14.6326 12.5 14.7598 12.4473 14.8536 12.3536C14.9473 12.2598 15 12.1326 15 12V10.5H18.5V19.5H17.5C17.3674 19.5 17.2402 19.5527 17.1464 19.6464C17.0527 19.7402 17 19.8674 17 20C17 20.1326 17.0527 20.2598 17.1464 20.3536C17.2402 20.4473 17.3674 20.5 17.5 20.5H20.5C20.6326 20.5 20.7598 20.4473 20.8536 20.3536C20.9473 20.2598 21 20.1326 21 20C21 19.8674 20.9473 19.7402 20.8536 19.6464C20.7598 19.5527 20.6326 19.5 20.5 19.5H19.5V10.5H23V12C23 12.1326 23.0527 12.2598 23.1464 12.3536C23.2402 12.4473 23.3674 12.5 23.5 12.5C23.6326 12.5 23.7598 12.4473 23.8536 12.3536C23.9473 12.2598 24 12.1326 24 12V10C24 9.86739 23.9473 9.74021 23.8536 9.64645C23.7598 9.55268 23.6326 9.5 23.5 9.5Z" fill="#1B1B1B"/>
</svg>
