<svg width="29" height="31" viewBox="0 0 29 31" fill="none" xmlns="http://www.w3.org/2000/svg">
<path d="M14.4571 26.9564C13.6111 26.9564 12.7593 26.8499 11.8961 26.7209C10.7585 26.5527 9.00919 25.762 7.86015 24.5901C6.57963 23.2836 5.9508 21.5116 5.7793 20.6649L5.745 20.4911C5.27052 17.8556 5.17334 14.0033 5.17334 13.3529C5.17334 12.3547 5.80217 11.6594 6.76828 11.5809C7.75725 11.5024 8.45468 12.1921 8.58616 13.3809L8.69478 14.508L8.76338 13.3192L9.05493 8.81086L9.34076 4.5997C9.34076 4.5941 9.34076 4.5941 9.34076 4.58849C9.45509 3.55673 10.1468 2.88944 11.1072 2.88944C11.8161 2.88944 12.4277 3.29878 12.7078 3.89317L12.8107 2.54179C12.8165 1.59413 13.6054 0.820312 14.5772 0.820312H14.7258C15.6976 0.820312 16.4922 1.59974 16.4922 2.553C16.4922 2.55861 16.4922 2.56982 16.4922 2.57543L16.4351 3.34925C16.7952 2.97916 17.3097 2.82776 17.7728 2.85019C18.5159 2.89505 19.3277 3.41093 19.3448 4.4483C19.3448 4.45391 19.3448 4.45952 19.3448 4.45952C19.3163 5.39595 18.9847 9.38843 18.9675 9.55665L18.9275 9.94917L19.4192 7.98097C19.482 7.72863 19.5678 7.49873 19.6707 7.29126C19.9851 6.67444 20.4196 6.37164 21.0027 6.37164C21.3399 6.37164 21.8487 6.37164 22.3175 6.91556C22.6376 7.28565 22.5404 7.98097 22.5118 8.13797C22.4833 8.29498 21.6829 12.0015 21.6829 12.0015C21.5057 13.0108 21.4886 14.351 21.4886 15.2762V15.6407C21.4886 15.6463 21.4886 15.6463 21.4886 15.6519C21.4771 16.0837 21.4771 16.5379 21.4771 17.0201C21.4771 19.9528 21.4714 23.6088 18.4359 25.762C17.1439 26.6817 15.8177 26.9564 14.4571 26.9564ZM6.92263 12.1977C6.88833 12.1977 6.85403 12.1977 6.81973 12.2033C6.17947 12.2538 5.80217 12.6856 5.80217 13.3585C5.80217 13.9977 5.89935 17.7995 6.3624 20.3902L6.39098 20.5584C6.54533 21.3322 7.12271 22.9639 8.30605 24.1695C9.35791 25.2406 10.9528 25.9639 11.9818 26.1153C14.5943 26.5078 16.3379 26.491 18.0529 25.2742C19.282 24.3994 20.0766 23.177 20.4767 21.5228C20.8312 20.0537 20.8312 18.45 20.8369 17.0313C20.8369 16.5491 20.8369 16.0893 20.8483 15.6519V15.293C20.8483 14.2669 20.8712 12.9547 21.0541 11.9118C21.0541 11.9061 21.0541 11.9061 21.0541 11.9005L21.883 8.05386C21.9288 7.76228 21.9745 7.61649 21.8316 7.33612C21.6887 7.05575 21.2942 6.90435 20.9855 6.93799C20.6768 6.97163 20.4882 7.07817 20.2252 7.58284C20.1394 7.74546 20.0709 7.93611 20.0194 8.14358L18.5045 14.2669C18.4645 14.4239 18.3101 14.5248 18.1444 14.4968C17.9843 14.4687 17.87 14.3229 17.8814 14.1659L18.3387 9.5174C18.3444 9.47814 18.6874 5.40156 18.716 4.46512C18.6989 3.82027 18.2129 3.50626 17.7328 3.47822C17.2354 3.45019 16.6866 3.73056 16.5951 4.42027L15.6119 13.9472C15.5947 14.1155 15.4461 14.2388 15.2689 14.222C15.0974 14.2052 14.9716 14.0594 14.9831 13.8912L15.8577 2.54739C15.852 1.93619 15.3432 1.44273 14.7201 1.44273H14.5715C13.9426 1.44273 13.4339 1.94179 13.4339 2.55861C13.4339 2.56421 13.4339 2.57543 13.4339 2.58104L12.5592 14.0033C12.5478 14.1715 12.3991 14.2949 12.2276 14.2893C12.0562 14.2781 11.9247 14.1379 11.9304 13.9697L12.2391 4.62213C12.2391 4.01093 11.7246 3.51187 11.1015 3.51187C10.4669 3.51187 10.0439 3.93803 9.96387 4.65578L9.67804 8.85572L9.38649 13.3641L9.08922 18.6855C9.07779 18.8481 8.94631 18.9715 8.78053 18.9771C8.61474 18.9827 8.47755 18.8593 8.4604 18.6967L7.95733 13.4538C7.90588 12.9772 7.70009 12.1977 6.92263 12.1977Z" fill="#1B1B1B" stroke="#1B1B1B" stroke-width="0.2"/>
<path d="M25.2457 8.2783C25.2285 8.2783 25.2057 8.27829 25.1885 8.27269C25.017 8.23904 24.9027 8.08204 24.937 7.91381C25.1999 6.51196 24.8798 5.28955 23.9709 4.28022C23.2849 3.512 22.5017 3.15874 22.4903 3.15874C22.3302 3.08584 22.2616 2.9064 22.3302 2.7494C22.3988 2.59239 22.5874 2.5251 22.7475 2.59239C22.7818 2.60921 23.645 2.99612 24.4225 3.85405C25.1485 4.65031 25.9317 6.02412 25.5487 8.02596C25.5258 8.17175 25.3943 8.2783 25.2457 8.2783Z" fill="#1B1B1B" stroke="#1B1B1B" stroke-width="0.2"/>
<path d="M27.5891 7.86848C27.5719 7.86848 27.5548 7.86848 27.5319 7.86287C27.3604 7.83483 27.2461 7.67222 27.2747 7.504C27.612 5.64234 27.1089 4.00498 25.7769 2.63116C24.7708 1.58818 23.6389 1.09473 23.6275 1.08913C23.4674 1.02184 23.3931 0.836793 23.4674 0.685393C23.536 0.528386 23.7189 0.455489 23.879 0.528386C23.9305 0.550815 25.1195 1.0667 26.2171 2.19378C27.2404 3.24237 28.3551 5.03674 27.8921 7.61614C27.8692 7.76194 27.7377 7.86848 27.5891 7.86848Z" fill="#1B1B1B" stroke="#1B1B1B" stroke-width="0.2"/>
<path d="M7.37564 28.2174C7.35849 28.2174 7.34134 28.2174 7.32991 28.2118C7.2899 28.2062 6.35237 28.0604 5.37483 27.4323C4.46017 26.8492 3.33399 25.7277 3.15678 23.7034C3.13963 23.5352 3.27111 23.3838 3.44261 23.3726C3.61411 23.3557 3.76846 23.4847 3.77989 23.6529C3.90566 25.0716 4.54592 26.1707 5.69496 26.9052C6.56388 27.466 7.41566 27.6006 7.42709 27.6062C7.59859 27.6342 7.71292 27.7912 7.69006 27.9594C7.66147 28.1052 7.52428 28.2174 7.37564 28.2174Z" fill="#1B1B1B" stroke="#1B1B1B" stroke-width="0.2"/>
<path d="M6.83251 30.4996C6.81536 30.4996 6.80393 30.4996 6.78678 30.494C6.73533 30.4883 5.44338 30.2977 4.08282 29.4958C2.81373 28.7501 1.2531 27.3146 1.00156 24.7071C0.984414 24.5389 1.11018 24.3875 1.28739 24.3707C1.45889 24.3539 1.61324 24.4772 1.63039 24.651C1.80761 26.5295 2.73942 27.9818 4.39152 28.9575C5.64346 29.6977 6.86682 29.8828 6.87825 29.8828C7.04975 29.9052 7.1698 30.0622 7.14693 30.2304C7.11835 30.3874 6.98686 30.4996 6.83251 30.4996Z" fill="#1B1B1B" stroke="#1B1B1B" stroke-width="0.2"/>
</svg>
