<svg width="22" height="23" viewBox="0 0 22 23" fill="none" xmlns="http://www.w3.org/2000/svg">
<path d="M20.5163 1.40121C19.5785 0.635947 18.346 0.337196 17.1626 0.585486L10.1742 2.041C8.31387 2.43387 6.98171 4.07216 6.9749 5.97243V15.7884C5.67275 14.363 3.53941 14.0669 1.89749 15.0846C0.255498 16.1008 -0.426952 18.1443 0.273248 19.9435C0.973449 21.7428 2.85567 22.7877 4.7542 22.4303C6.6528 22.0729 8.02591 20.4141 8.02319 18.4838V5.97226C8.02728 4.56724 9.01274 3.35725 10.3872 3.06671L17.3756 1.61119C18.2505 1.4284 19.1623 1.65075 19.8557 2.21414C20.5491 2.77753 20.9517 3.62328 20.9517 4.51678V12.8787C19.6496 11.4518 17.5162 11.1558 15.8743 12.1734C14.2323 13.1911 13.5498 15.2345 14.25 17.0338C14.9502 18.833 16.8338 19.8779 18.731 19.5205C20.6296 19.1632 22.0041 17.5044 22 15.5727V4.51664C22.0027 3.30669 21.4567 2.16239 20.5163 1.40121ZM4.0048 21.4523C2.80367 21.4523 1.71991 20.7293 1.2613 19.6203C0.801326 18.5112 1.0552 17.2345 1.90416 16.3846C2.75451 15.5361 4.03205 15.2824 5.14174 15.7421C6.25143 16.2005 6.97483 17.2836 6.97483 18.484C6.97346 20.1223 5.64407 21.4509 4.0048 21.4523ZM17.9816 18.5413C16.7804 18.5413 15.6967 17.8183 15.2381 16.7093C14.7781 15.6003 15.032 14.3235 15.8809 13.475C16.7313 12.6265 18.0088 12.3714 19.1185 12.8311C20.2282 13.2908 20.9516 14.3726 20.9516 15.573C20.9502 17.2126 19.6208 18.5399 17.9816 18.5413Z" fill="#1B1B1B"/>
</svg>
