<svg width="84" height="69" viewBox="0 0 84 69" fill="none" xmlns="http://www.w3.org/2000/svg">
<path d="M36.8765 0L38.5396 6.17714L44.7168 7.84033L38.5396 9.50351L36.8765 15.6807L35.2133 9.50351L29.0361 7.84033L35.2133 6.17714L36.8765 0Z" fill="#FC927B"/>
<path fill-rule="evenodd" clip-rule="evenodd" d="M67.4257 29.8364L63.4658 14.9328L59.5058 29.8364L44.7983 33.8491L59.5058 37.8619L63.4658 52.7655L64.1478 50.1985L64.3425 50.9312L64.9434 50.7673L64.4701 48.9859L67.4257 37.8619L78.4033 34.8668L80.1613 35.3464L80.3231 34.7376L79.6 34.5403L82.1332 33.8491L67.4257 29.8364ZM79.6 34.5403L77.8719 34.0688L77.7101 34.6777L78.4033 34.8668L79.6 34.5403ZM64.4701 48.9859L64.2834 48.2834L63.6825 48.4473L64.1478 50.1985L64.4701 48.9859ZM65.6625 18.0664L65.6457 18.071L65.6034 18.2303L65.3325 18.1564L65.0617 18.2303L65.0193 18.071L65.0025 18.0664L65.3325 16.8244L65.6625 18.0664ZM66.3225 20.5503L66.9825 23.0343L66.3817 23.1982L65.7217 20.7143L66.3225 20.5503ZM67.6425 25.5182L68.3025 28.0021L67.7016 28.1661L67.0417 25.6821L67.6425 25.5182ZM68.9625 30.4861L69.2925 31.728L70.5181 32.0624L70.3563 32.6713L68.7848 32.2425L68.3616 30.65L68.9625 30.4861ZM72.9694 32.7312L75.4206 33.4L75.2588 34.0089L72.8076 33.3401L72.9694 32.7312ZM82.7698 35.4234L82.7743 35.4064L84 35.7408L82.7743 36.0752L82.7698 36.0581L82.6126 36.0152L82.6855 35.7408L82.6126 35.4663L82.7698 35.4234ZM80.3231 36.744L77.8719 37.4128L77.7101 36.8039L80.1613 36.1351L80.3231 36.744ZM75.4206 38.0816L72.9694 38.7504L72.8076 38.1415L75.2588 37.4727L75.4206 38.0816ZM70.5181 39.4191L69.2925 39.7535L68.9625 40.9955L68.3616 40.8316L68.7848 39.2391L70.3563 38.8103L70.5181 39.4191ZM68.3025 43.4794L67.6425 45.9634L67.0417 45.7994L67.7016 43.3155L68.3025 43.4794ZM66.9825 48.4473L66.3225 50.9312L65.7217 50.7673L66.3817 48.2834L66.9825 48.4473ZM65.6457 53.4106L65.6625 53.4152L65.3325 54.6571L65.0025 53.4152L65.0193 53.4106L65.0617 53.2512L65.3325 53.3251L65.6034 53.2512L65.6457 53.4106ZM63.0225 45.9634L62.3626 43.4794L62.9634 43.3155L63.6234 45.7994L63.0225 45.9634ZM61.7026 40.9955L61.3726 39.7535L60.1469 39.4191L60.3087 38.8103L61.8803 39.2391L62.3034 40.8316L61.7026 40.9955ZM57.6957 38.7504L55.2444 38.0816L55.4062 37.4727L57.8575 38.1415L57.6957 38.7504ZM52.7932 37.4128L50.342 36.744L50.5037 36.1351L52.955 36.8039L52.7932 37.4128ZM47.8952 36.0581L47.8907 36.0752L46.6651 35.7408L47.8907 35.4064L47.8952 35.4234L48.0525 35.4663L47.9796 35.7408L48.0525 36.0152L47.8952 36.0581ZM50.342 34.7376L52.7932 34.0688L52.955 34.6777L50.5037 35.3464L50.342 34.7376ZM55.2444 33.4L57.6957 32.7312L57.8575 33.3401L55.4062 34.0089L55.2444 33.4ZM60.1469 32.0624L61.3726 31.728L61.7026 30.4861L62.3034 30.65L61.8803 32.2425L60.3087 32.6713L60.1469 32.0624ZM62.3626 28.0021L63.0225 25.5182L63.6234 25.6821L62.9634 28.1661L62.3626 28.0021ZM63.6825 23.0343L64.3425 20.5503L64.9434 20.7143L64.2834 23.1982L63.6825 23.0343Z" fill="#FC927B"/>
<path d="M12.5046 55.2327L12.5777 55.5111L12.8552 55.5876L14.9657 56.1697C15.2319 56.2431 15.5072 56.0868 15.5807 55.8206L18.8377 56.719C18.7643 56.9852 18.9206 57.2605 19.1868 57.3339L19.5497 57.434L19.1868 57.5341C18.9206 57.6076 18.7643 57.8829 18.8377 58.1491L15.5807 59.0474C15.5072 58.7812 15.2319 58.625 14.9657 58.6984L12.8552 59.2805L12.5777 59.357L12.5046 59.6354L11.9363 61.7974C11.8661 62.0645 12.0257 62.3379 12.2928 62.4081L11.4105 65.7649C11.1434 65.6947 10.87 65.8543 10.7998 66.1214L10.7151 66.4436L10.6304 66.1214C10.5602 65.8543 10.2868 65.6947 10.0198 65.7649L9.13745 62.4081C9.40452 62.3379 9.56412 62.0645 9.49392 61.7974L8.92567 59.6354L8.8525 59.357L8.57504 59.2805L6.46451 58.6984C6.19831 58.625 5.92299 58.7812 5.84957 59.0474L2.59253 58.1491C2.66595 57.8829 2.50967 57.6076 2.24347 57.5341L1.8805 57.434L2.24347 57.3339C2.50967 57.2605 2.66595 56.9852 2.59253 56.719L5.84957 55.8206C5.92299 56.0868 6.19831 56.2431 6.46451 56.1697L8.57504 55.5876L8.8525 55.5111L8.92567 55.2327L9.49392 53.0707C9.56412 52.8036 9.40452 52.5302 9.13745 52.46L10.0198 49.1032C10.2868 49.1734 10.5602 49.0138 10.6304 48.7467L10.7151 48.4245L10.7998 48.7467C10.87 49.0138 11.1434 49.1734 11.4105 49.1032L12.2928 52.46C12.0257 52.5302 11.8661 52.8036 11.9363 53.0707L12.5046 55.2327Z" fill="#FC927B" stroke="#E0EEFF" stroke-linecap="round" stroke-dasharray="4 4"/>
</svg>
