<svg width="102" height="57" viewBox="0 0 102 57" fill="none" xmlns="http://www.w3.org/2000/svg">
<path d="M44.4507 0L46.4555 7.44593L53.9015 9.45074L46.4555 11.4555L44.4507 18.9015L42.4459 11.4555L35 9.45074L42.4459 7.44593L44.4507 0Z" fill="white"/>
<path fill-rule="evenodd" clip-rule="evenodd" d="M81.2751 26.9648L76.5018 9L71.7284 26.9648L54 31.8018L71.7284 36.6388L76.5018 54.6036L77.3239 51.5093L77.5586 52.3925L78.2829 52.1949L77.7123 50.0476L81.2751 36.6388L94.5075 33.0285L96.6266 33.6066L96.8216 32.8727L95.95 32.6349L99.0035 31.8018L81.2751 26.9648ZM95.95 32.6349L93.8668 32.0665L93.6718 32.8005L94.5075 33.0285L95.95 32.6349ZM77.7123 50.0476L77.4873 49.2008L76.763 49.3984L77.3239 51.5093L77.7123 50.0476ZM79.1497 12.7772L79.1295 12.7828L79.0784 12.9749L78.7519 12.8858L78.4254 12.9749L78.3744 12.7828L78.3542 12.7772L78.7519 11.2802L79.1497 12.7772ZM79.9453 15.7714L80.7408 18.7655L80.0166 18.9631L79.221 15.969L79.9453 15.7714ZM81.5364 21.7596L82.3319 24.7538L81.6077 24.9514L80.8121 21.9572L81.5364 21.7596ZM83.1275 27.7479L83.5253 29.245L85.0026 29.6481L84.8076 30.382L82.9133 29.8651L82.4032 27.9455L83.1275 27.7479ZM87.9574 30.4542L90.9121 31.2604L90.7171 31.9943L87.7624 31.1881L87.9574 30.4542ZM99.7709 33.6994L99.7763 33.6789L101.254 34.082L99.7763 34.485L99.7709 34.4645L99.5813 34.4128L99.6692 34.082L99.5813 33.7511L99.7709 33.6994ZM96.8216 35.2912L93.8668 36.0974L93.6718 35.3634L96.6266 34.5573L96.8216 35.2912ZM90.9121 36.9035L87.9574 37.7097L87.7624 36.9758L90.7171 36.1696L90.9121 36.9035ZM85.0026 38.5159L83.5253 38.9189L83.1275 40.416L82.4032 40.2184L82.9133 38.2988L84.8076 37.7819L85.0026 38.5159ZM82.3319 43.4101L81.5364 46.4043L80.8121 46.2067L81.6077 43.2125L82.3319 43.4101ZM80.7408 49.3984L79.9453 52.3925L79.221 52.1949L80.0166 49.2008L80.7408 49.3984ZM79.1295 55.3811L79.1497 55.3867L78.7519 56.8837L78.3542 55.3867L78.3744 55.3811L78.4254 55.1891L78.7519 55.2781L79.0784 55.1891L79.1295 55.3811ZM75.9675 46.4043L75.1719 43.4101L75.8962 43.2125L76.6917 46.2067L75.9675 46.4043ZM74.3764 40.416L73.9786 38.9189L72.5012 38.5159L72.6962 37.7819L74.5906 38.2988L75.1006 40.2184L74.3764 40.416ZM69.5465 37.7097L66.5918 36.9035L66.7868 36.1696L69.7415 36.9758L69.5465 37.7097ZM63.637 36.0974L60.6823 35.2912L60.8773 34.5573L63.832 35.3634L63.637 36.0974ZM57.733 34.4645L57.7275 34.485L56.2502 34.082L57.7275 33.6789L57.733 33.6994L57.9226 33.7511L57.8346 34.082L57.9225 34.4128L57.733 34.4645ZM60.6823 32.8727L63.637 32.0665L63.832 32.8005L60.8773 33.6066L60.6823 32.8727ZM66.5917 31.2604L69.5465 30.4542L69.7415 31.1881L66.7868 31.9943L66.5917 31.2604ZM72.5012 29.6481L73.9786 29.245L74.3764 27.7479L75.1006 27.9455L74.5906 29.8651L72.6962 30.382L72.5012 29.6481ZM75.1719 24.7538L75.9675 21.7596L76.6917 21.9572L75.8962 24.9514L75.1719 24.7538ZM76.763 18.7655L77.5586 15.7714L78.2829 15.969L77.4873 18.9631L76.763 18.7655Z" fill="white"/>
<path d="M15.1723 38.5514L15.2455 38.8298L15.523 38.9063L18.067 39.608C18.3332 39.6814 18.6085 39.5251 18.6819 39.2589L22.806 40.3964C22.7326 40.6626 22.8888 40.9379 23.155 41.0114L23.9515 41.231L23.155 41.4507C22.8888 41.5241 22.7326 41.7995 22.806 42.0657L18.6819 43.2031C18.6085 42.9369 18.3332 42.7807 18.067 42.8541L15.523 43.5558L15.2455 43.6323L15.1723 43.9107L14.4874 46.5167C14.4172 46.7838 14.5768 47.0572 14.8438 47.1274L13.7281 51.3724C13.461 51.3022 13.1876 51.4618 13.1174 51.7289L12.916 52.4951L12.7146 51.7289C12.6444 51.4618 12.371 51.3022 12.1039 51.3724L10.9882 47.1274C11.2553 47.0572 11.4149 46.7838 11.3447 46.5167L10.6597 43.9107L10.5865 43.6323L10.3091 43.5558L7.76502 42.8541C7.49882 42.7807 7.2235 42.9369 7.15008 43.2031L3.02603 42.0657C3.09945 41.7995 2.94317 41.5241 2.67697 41.4507L1.8805 41.231L2.67697 41.0114C2.94317 40.9379 3.09945 40.6626 3.02603 40.3964L7.15008 39.2589C7.2235 39.5251 7.49882 39.6814 7.76502 39.608L10.3091 38.9063L10.5865 38.8298L10.6597 38.5514L11.3447 35.9453C11.4149 35.6783 11.2553 35.4048 10.9882 35.3347L12.1039 31.0897C12.371 31.1598 12.6444 31.0002 12.7146 30.7332L12.916 29.9669L13.1174 30.7332C13.1876 31.0002 13.461 31.1598 13.7281 31.0897L14.8438 35.3347C14.5768 35.4048 14.4172 35.6783 14.4874 35.9453L15.1723 38.5514Z" stroke="white" stroke-linecap="round" stroke-dasharray="4 4"/>
</svg>
