<svg width="39" height="33" viewBox="0 0 39 33" fill="none" xmlns="http://www.w3.org/2000/svg">
<path d="M23.7335 0L24.5255 2.9415L27.467 3.73349L24.5255 4.52548L23.7335 7.46698L22.9415 4.52548L20 3.73349L22.9415 2.9415L23.7335 0Z" fill="white"/>
<path fill-rule="evenodd" clip-rule="evenodd" d="M30.775 20.0969L28.8893 13L27.0036 20.0969L20 22.0078L27.0036 23.9186L28.8893 31.0156L29.2141 29.7932L29.3068 30.1421L29.5929 30.064L29.3675 29.2157L30.775 23.9186L36.0024 22.4924L36.8395 22.7208L36.9166 22.4309L36.5722 22.3369L37.7785 22.0078L30.775 20.0969ZM36.5722 22.3369L35.7493 22.1124L35.6723 22.4023L36.0024 22.4924L36.5722 22.3369ZM29.3675 29.2157L29.2786 28.8812L28.9925 28.9593L29.2141 29.7932L29.3675 29.2157ZM29.9353 14.4922L29.9273 14.4944L29.9072 14.5703L29.7782 14.5351L29.6492 14.5703L29.629 14.4944L29.621 14.4922L29.7782 13.9008L29.9353 14.4922ZM30.2496 15.675L30.5639 16.8578L30.2778 16.9359L29.9635 15.7531L30.2496 15.675ZM30.8782 18.0407L31.1925 19.2235L30.9063 19.3015L30.5921 18.1187L30.8782 18.0407ZM31.5067 20.4063L31.6639 20.9977L32.2475 21.157L32.1705 21.4469L31.4221 21.2427L31.2206 20.4844L31.5067 20.4063ZM33.4148 21.4754L34.582 21.7939L34.505 22.0838L33.3377 21.7654L33.4148 21.4754ZM38.0817 22.7574L38.0838 22.7493L38.6674 22.9086L38.0838 23.0678L38.0817 23.0597L38.0068 23.0393L38.0415 22.9086L38.0068 22.7779L38.0817 22.7574ZM36.9166 23.3863L35.7493 23.7047L35.6723 23.4148L36.8395 23.0963L36.9166 23.3863ZM34.582 24.0232L33.4148 24.3417L33.3377 24.0518L34.505 23.7333L34.582 24.0232ZM32.2475 24.6602L31.6639 24.8194L31.5067 25.4108L31.2206 25.3327L31.4221 24.5744L32.1705 24.3702L32.2475 24.6602ZM31.1925 26.5936L30.8782 27.7765L30.5921 27.6984L30.9063 26.5156L31.1925 26.5936ZM30.5639 28.9593L30.2496 30.1421L29.9635 30.064L30.2778 28.8812L30.5639 28.9593ZM29.9273 31.3227L29.9353 31.3249L29.7782 31.9163L29.621 31.3249L29.629 31.3227L29.6492 31.2469L29.7782 31.2821L29.9072 31.2469L29.9273 31.3227ZM28.6782 27.7765L28.3639 26.5936L28.65 26.5156L28.9643 27.6984L28.6782 27.7765ZM28.0496 25.4108L27.8925 24.8194L27.3089 24.6602L27.3859 24.3702L28.1343 24.5744L28.3357 25.3327L28.0496 25.4108ZM26.1416 24.3417L24.9743 24.0232L25.0514 23.7333L26.2186 24.0518L26.1416 24.3417ZM23.8071 23.7047L22.6398 23.3863L22.7169 23.0963L23.8841 23.4148L23.8071 23.7047ZM21.4747 23.0597L21.4726 23.0678L20.8889 22.9086L21.4726 22.7493L21.4747 22.7574L21.5496 22.7779L21.5149 22.9086L21.5496 23.0393L21.4747 23.0597ZM22.6398 22.4309L23.8071 22.1124L23.8841 22.4023L22.7169 22.7208L22.6398 22.4309ZM24.9743 21.7939L26.1416 21.4754L26.2186 21.7654L25.0514 22.0838L24.9743 21.7939ZM27.3089 21.157L27.8925 20.9977L28.0496 20.4063L28.3357 20.4844L28.1343 21.2427L27.3859 21.4469L27.3089 21.157ZM28.3639 19.2235L28.6782 18.0407L28.9643 18.1187L28.65 19.3015L28.3639 19.2235ZM28.9925 16.8578L29.3068 15.675L29.5929 15.7531L29.2786 16.9359L28.9925 16.8578Z" fill="white"/>
<path d="M5.70125 26.2452L5.77442 26.5236L6.05188 26.6001L7.05689 26.8773C7.32309 26.9507 7.59841 26.7944 7.67184 26.5282L8.71786 26.8167C8.67773 26.9622 8.7062 27.1104 8.78372 27.2269C8.7062 27.3434 8.67773 27.4916 8.71786 27.637L7.67184 27.9255C7.59841 27.6593 7.32309 27.5031 7.05689 27.5765L6.05188 27.8537L5.77442 27.9302L5.70125 28.2086L5.43065 29.2381C5.36046 29.5052 5.52005 29.7786 5.78713 29.8488L5.50013 30.9407C5.35904 30.9036 5.21617 30.9306 5.10243 31.0038C4.9887 30.9306 4.84583 30.9036 4.70474 30.9407L4.41774 29.8488C4.68482 29.7786 4.84441 29.5052 4.77422 29.2381L4.50362 28.2086L4.43045 27.9302L4.15299 27.8537L3.14798 27.5765C2.88177 27.5031 2.60645 27.6593 2.53303 27.9255L1.48701 27.637C1.52714 27.4916 1.49867 27.3434 1.42115 27.2269C1.49867 27.1104 1.52714 26.9622 1.48701 26.8167L2.53303 26.5282C2.60645 26.7944 2.88177 26.9507 3.14798 26.8773L4.15299 26.6001L4.43045 26.5236L4.50362 26.2452L4.77422 25.2157C4.84441 24.9486 4.68482 24.6752 4.41774 24.605L4.70474 23.5131C4.84583 23.5502 4.9887 23.5231 5.10243 23.45C5.21617 23.5231 5.35904 23.5502 5.50013 23.5131L5.78713 24.605C5.52005 24.6752 5.36046 24.9486 5.43065 25.2157L5.70125 26.2452Z" stroke="white" stroke-linecap="round" stroke-dasharray="4 4"/>
</svg>
