<svg width="21" height="21" viewBox="0 0 21 21" fill="none" xmlns="http://www.w3.org/2000/svg">
<path d="M9.59468 11.4044C9.43542 11.2454 9.24561 11.1203 9.03671 11.0367L2.42837 8.38669C2.34947 8.35503 2.28214 8.29999 2.23542 8.22897C2.1887 8.15794 2.16483 8.07431 2.16701 7.98933C2.16918 7.90434 2.19731 7.82205 2.2476 7.7535C2.2979 7.68496 2.36795 7.63344 2.44837 7.60586L18.2817 2.18919C18.3555 2.16252 18.4355 2.15743 18.5121 2.17452C18.5887 2.19161 18.6589 2.23016 18.7144 2.28567C18.7699 2.34119 18.8085 2.41136 18.8255 2.48799C18.8426 2.56461 18.8375 2.64452 18.8109 2.71836L13.3942 18.5517C13.3666 18.6321 13.3151 18.7022 13.2466 18.7525C13.178 18.8028 13.0957 18.8309 13.0107 18.8331C12.9258 18.8352 12.8421 18.8114 12.7711 18.7646C12.7001 18.7179 12.645 18.6506 12.6134 18.5717L9.96337 11.9617C9.87936 11.7529 9.75394 11.5634 9.59468 11.4044ZM9.59468 11.4044L18.7117 2.28919" stroke="#383737" stroke-width="1.5" stroke-linecap="round" stroke-linejoin="round"/>
</svg>
